# xmcd CD database file
#
# Track frame offsets:
#	150
#	19032
#	41497
#	59975
#	81940
#	105130
#	121875
#	140670
#	162472
#	187330
#
# Disc length: 2847 seconds
#
# Revision: 0
# Processed by: cddbd v1.5PL3 Copyright (c) Steve Scherf et al.
# Submitted via: CDex 1.50Beta7
#
DISCID=8c0b1d0a
DTITLE=谷村新司 - 三都物語
DYEAR=1992
DGENRE=J-pop
TTITLE0=三都物語
TTITLE1=非婚宣言
TTITLE2=悲しい女
TTITLE3=涙あふれて
TTITLE4=Answer Phone
TTITLE5=ガラスの砂漠
TTITLE6=こころ前線
TTITLE7=歩きつづけて
TTITLE8=ノスタルジア
TTITLE9=最終フライト
EXTD=YEAR: 1992
EXTT0=
EXTT1=
EXTT2=
EXTT3=
EXTT4=
EXTT5=
EXTT6=
EXTT7=
EXTT8=
EXTT9=
PLAYORDER=
